<svg xmlns="http://www.w3.org/2000/svg" xmlns:xlink="http://www.w3.org/1999/xlink" version="1.1" width="352.3497pt" height="182.6712pt" viewBox="0 0 352.3497 182.6712">
<g id="layer_1" data-name="">
<path transform="matrix(1,0,0,-1,1,181.6712)" d="M45.1474 138.9662 32.3155 101.8525H24.0426L11.4537 137.6527V77.1466H0V170.4934H10.8539L28.2441 121.9164 45.7503 170.4934H56.6014V77.1466H45.1474ZM81.307 159.7921V129.2335H101.749V118.5321H81.307V87.8482H105.0097V77.1466H69.8533V170.4934H105.0097V159.7921ZM157.4311 123.8199C157.4311 117.9663 157.3824 112.0935 157.1474 106.2439 157.0048 102.6947 156.8319 98.9223 156.2777 95.4119 155.5469 90.7843 153.8668 86.3674 150.6056 82.9222 146.6734 78.7683 141.4772 77.1466 135.8396 77.1466H115.5027V170.4934H135.8396C141.4772 170.4934 146.6734 168.8717 150.6056 164.7181 153.8671 161.2726 155.5469 156.8557 156.2777 152.2281 156.8319 148.7177 157.0048 144.9454 157.1474 141.3961 157.3824 135.5465 157.4311 129.6737 157.4311 123.8199ZM126.9564 159.7921V87.8482H135.4637C137.9205 87.8482 140.4088 88.3811 142.0934 90.2954L142.1218 90.3277 142.1515 90.3589C144.1227 92.4157 144.9074 95.6769 145.2396 98.4175 145.6087 101.4616 145.7002 104.684 145.7901 107.7486 145.9471 113.1009 145.9774 118.4658 145.9774 123.8199 145.9774 129.1742 145.9471 134.5394 145.7901 139.8915 145.7002 142.9557 145.6087 146.1781 145.2396 149.2226 144.9074 151.9628 144.1227 155.2246 142.1515 157.2814L142.1218 157.3126 142.0934 157.3449C140.4088 159.2592 137.9205 159.7921 135.4637 159.7921ZM180.1304 77.1466H168.6767V170.4934H180.1304ZM302.6704 152.8123C303.2243 149.2123 303.3964 145.3572 303.539 141.7198 303.7737 135.7296 303.8227 129.7168 303.8227 123.7224 303.8227 117.7282 303.7737 111.7151 303.539 105.7249 303.3964 102.0875 303.2243 98.2321 302.6704 94.6324 301.9504 89.9521 300.2803 85.4609 297.0062 81.9561 293.0494 77.7206 287.8243 76.0456 282.1059 76.0456 276.4165 76.0456 271.2606 77.7498 267.3312 81.9561 264.0569 85.4609 262.387 89.9521 261.6667 94.6324 261.1128 98.2321 260.941 102.0875 260.7982 105.7249 260.5635 111.7151 260.5147 117.7282 260.5147 123.7224 260.5147 129.7165 260.5635 135.7296 260.7982 141.7198 260.941 145.3572 261.1128 149.2126 261.6667 152.8123 262.387 157.4926 264.0569 161.9838 267.3312 165.4886 271.2609 169.6946 276.4162 171.3988 282.1059 171.3988 287.8243 171.3988 293.0494 169.7238 297.0062 165.4886 300.2805 161.9836 301.9504 157.4926 302.6704 152.8123ZM291.63 97.8089C291.9954 100.9457 292.0907 104.243 292.1817 107.3991 292.3379 112.8353 292.3688 118.2838 292.3688 123.7224 292.3688 129.1606 292.3379 134.6091 292.1817 140.0457 292.0907 143.2018 291.9954 146.499 291.63 149.6358 291.3024 152.4475 290.5415 155.9364 288.612 158.1231 286.9149 160.0464 284.618 160.6978 282.1059 160.6978 279.6174 160.6978 277.3993 160.0203 275.7251 158.1231 273.7959 155.9364 273.0351 152.4472 272.7074 149.6358 272.342 146.499 272.2465 143.2018 272.1557 140.0457 271.9993 134.6091 271.9684 129.1606 271.9684 123.7224 271.9684 118.2838 271.9993 112.8353 272.1557 107.3991 272.2465 104.243 272.342 100.9457 272.7074 97.8089 273.0351 94.9972 273.7956 91.5083 275.7251 89.3217 277.3993 87.4244 279.6174 86.747 282.1059 86.747 284.6183 86.747 286.9149 87.3984 288.612 89.3217 290.5415 91.5086 291.3024 94.9969 291.63 97.8089ZM326.6473 159.6943V129.136H347.089V118.4343H326.6473V77.0491H315.1933V170.3959H350.3497V159.6943Z" fill="#020003" fill-rule="evenodd"/>
<path transform="matrix(1,0,0,-1,1,181.6712)" d="M253.6506 162.0261C252.8708 162.811 252.0258 163.6943 251.1159 164.6756 250.206 165.657 249.1228 166.6054 247.8662 167.5216 246.6096 168.4375 245.0934 169.1898 243.3166 169.7786 241.5404 170.3673 239.309 170.6615 236.6226 170.6615 235.3226 170.6615 234.0011 170.4983 232.6578 170.1709 231.3147 169.844 229.3432 169.1569 226.7436 168.1101 226.5704 166.0167 226.3754 163.9888 226.1588 162.0261 225.942 160.0634 225.8337 158.0352 225.8337 155.9418 225.8337 152.409 226.1803 149.3342 226.8737 146.7173 227.5671 144.1003 228.4985 141.7453 229.6684 139.6517 230.8382 137.5583 232.2031 135.5956 233.763 133.7638 235.3226 131.9321 236.9693 130.0348 238.7024 128.0721 241.302 125.0629 243.3818 122.6421 244.9417 120.8103 246.5014 118.9786 247.8881 117.0814 249.101 115.1186 249.7079 114.0721 250.401 112.7962 251.1808 111.2916 251.9609 109.787 252.6758 108.0204 253.3255 105.9925 253.9755 103.9643 254.539 101.7074 255.0155 99.2214 255.492 96.7351 255.7304 93.9875 255.7304 90.978 255.7304 84.0436 254.7989 78.1554 252.9357 73.3141 251.0728 68.4731 249.2311 64.6132 247.4113 61.7346 246.6315 60.4261 245.6351 58.856 244.4216 57.0243 243.2083 55.1925 241.6487 53.2953 239.7421 51.3326 238.7024 50.286 237.316 49.0428 235.5829 47.6036 233.8495 46.1645 231.878 44.7905 229.6684 43.482 227.4588 42.1736 225.032 41.0941 222.3893 40.2437 219.7463 39.3931 216.995 38.9682 214.1351 38.9682 213.702 38.9682 212.6835 39.0662 211.0805 39.2624 209.4775 39.4586 207.6143 39.9166 205.4911 40.6361 203.368 41.3558 201.0934 42.5007 198.667 44.0708 196.2405 45.6409 194.0309 47.7998 192.0376 50.5477 190.0446 53.2953 188.3764 56.73 187.0333 60.8516 185.69 64.9732 185.0185 70.0432 185.0185 76.062 185.0185 77.3705 185.1483 79.4965 185.4085 82.4406 185.6684 85.3846 186.4264 88.6884 187.683 92.3519 188.9396 96.0157 190.8244 99.8427 193.3376 103.8334 195.8505 107.8243 199.3603 111.5203 203.8663 114.9225L204.1262 113.9411C203.4332 113.1562 202.5448 112.0439 201.4617 110.6045 200.3783 109.1653 199.317 107.2681 198.2769 104.9131 197.2369 102.5578 196.3273 99.7121 195.5472 96.3754 194.7674 93.0387 194.3773 89.2117 194.3773 84.894 194.3773 81.2305 194.5293 78.1228 194.8326 75.5714 195.1356 73.0199 195.5256 70.8284 196.0021 68.9964 196.4789 67.1647 197.0637 65.4965 197.7571 63.9916 198.4501 62.4869 199.1869 60.9497 199.9667 59.3796 200.7465 57.8092 201.765 56.1739 203.0213 54.4731 204.2779 52.7717 205.7511 51.2019 207.4408 49.7625 209.1308 48.3233 211.0156 47.1455 213.0953 46.2297 215.1748 45.3141 217.4712 44.856 219.9844 44.856 220.4178 44.856 221.2843 44.9212 222.5843 45.0522 223.884 45.1831 225.3572 45.6409 227.0038 46.4258 228.6502 47.211 230.4048 48.454 232.268 50.1551 234.1312 51.8562 235.8425 54.3421 237.4024 57.613 239.6557 62.3237 240.9769 66.6414 241.367 70.5665 241.757 74.4919 241.952 77.2396 241.952 78.8097 241.952 83.1274 241.562 86.9221 240.7819 90.193 240.0024 93.4642 239.0272 96.3428 237.8574 98.8288 236.6875 101.3148 235.4094 103.4736 234.023 105.3057 232.6365 107.1371 231.2932 108.8382 229.9935 110.4083 229.0399 111.4551 228.1303 112.5346 227.2637 113.6466 226.3972 114.7589 225.487 115.9038 224.534 117.0814 224.4472 117.212 223.7973 118.0301 222.5843 119.5347 221.3711 121.0394 220.3311 122.5114 219.4645 123.9506 217.1248 128.0069 215.7599 131.6704 215.3699 134.9413 214.9798 138.2125 214.7851 140.5678 214.7851 142.007 214.7851 142.7922 214.8066 143.9368 214.85 145.4414 214.8934 146.9463 215.1099 148.7126 215.5 150.7408 215.89 152.769 216.4748 154.9604 217.2549 157.3157 218.0347 159.6708 219.1612 162.0916 220.6346 164.5773 222.8873 168.5027 225.2489 171.5448 227.7184 173.7037 230.1883 175.8626 232.528 177.4655 234.7379 178.5121 236.9475 179.5592 238.854 180.1806 240.4573 180.3767 242.0603 180.5729 243.165 180.6712 243.7719 180.6712 244.8116 180.6712 245.7649 180.6058 246.6315 180.4748 247.498 180.3441 248.451 180.0822 249.4911 179.6899 250.5311 179.2973 251.7009 178.774 253.0009 178.1198 254.3006 177.4655 255.8605 176.6149 257.6801 175.5683Z" fill="#1a1a18"/>
<path transform="matrix(1,0,0,-1,1,181.6712)" d="M50.5199 .3807H47.4749L39.7193 12.9419 46.999 24.5988H49.949L42.6217 13.0844ZM39.6717 .3807H37.0074V24.5988H39.6717ZM73.0372 19.3652C73.2909 17.7792 73.4179 15.4794 73.4179 12.4659 73.4179 9.4527 73.2909 7.1529 73.0372 5.567 72.7835 3.981 72.3076 2.7598 71.61 1.9032 70.5631 .6344 69.0724 0 67.1374 0 65.2025 0 63.7115 .6344 62.6649 1.9032 61.9671 2.7598 61.4911 3.981 61.2374 5.567 60.9837 7.1529 60.8567 9.4527 60.8567 12.4659 60.8567 15.4794 60.9837 17.7792 61.2374 19.3652 61.4911 20.9511 61.9671 22.1723 62.6649 23.0287 63.7115 24.3292 65.2025 24.9795 67.1374 24.9795 69.0724 24.9795 70.5631 24.3292 71.61 23.0287 72.3076 22.1723 72.7835 20.9511 73.0372 19.3652ZM70.5155 6.3281C70.6742 7.5969 70.7533 9.6429 70.7533 12.4659 70.7533 15.2889 70.6742 17.3429 70.5155 18.6276 70.357 19.9123 70.024 20.8718 69.5163 21.5062 68.9136 22.2358 68.1208 22.6003 67.1374 22.6003 66.1224 22.6003 65.3134 22.2358 64.7107 21.5062 64.2033 20.8718 63.8782 19.9202 63.7353 18.6514 63.5927 17.3826 63.5213 15.3207 63.5213 12.4659 63.5213 9.6111 63.5927 7.5574 63.7353 6.3043 63.8782 5.0513 64.2033 4.1077 64.7107 3.4733 65.3134 2.7439 66.1224 2.3791 67.1374 2.3791 68.1208 2.3791 68.9136 2.7439 69.5163 3.4733 70.024 4.1077 70.357 5.0593 70.5155 6.3281ZM98.0762 6.7564C98.0127 4.3773 97.4418 2.6487 96.3632 1.5701 95.3164 .5236 93.8891 0 92.0812 0 90.178 0 88.687 .6344 87.6087 1.9032 86.9108 2.7281 86.4349 3.9413 86.1812 5.5431 85.9275 7.145 85.8005 9.4527 85.8005 12.4659 85.8005 15.4794 85.9275 17.7868 86.1812 19.3887 86.4349 20.9906 86.9108 22.2041 87.6087 23.0287 88.6552 24.3292 90.1463 24.9795 92.0812 24.9795 93.9209 24.9795 95.3481 24.4721 96.3632 23.457 97.4418 22.4101 98.0127 20.6498 98.0762 18.1755H95.4592C95.4592 19.7932 95.142 20.9353 94.5077 21.6014 93.9368 22.2673 93.1436 22.6003 92.1285 22.6003 91.0502 22.6003 90.2254 22.2358 89.6545 21.5062 89.1471 20.8718 88.8219 19.9043 88.6791 18.6038 88.5365 17.3032 88.465 15.2572 88.465 12.4659 88.465 9.6746 88.5365 7.6365 88.6791 6.3519 88.8219 5.0672 89.1471 4.1077 89.6545 3.4733 90.2254 2.7439 91.0502 2.3791 92.1285 2.3791 93.0487 2.3791 93.8256 2.6963 94.46 3.3307 95.1262 4.0286 95.4592 5.1704 95.4592 6.7564ZM127.635 .3807H124.9707V18.699L120.2128 7.2323H118.3096L113.599 18.699V.3807H110.9347V24.5988H113.4564L119.2612 10.4675 125.1133 24.5988H127.635ZM153.4354 12.0852H143.5388C143.5388 9.3892 143.6182 7.4225 143.7766 6.1855 143.9354 4.9484 144.2684 4.0445 144.7758 3.4733 145.3785 2.7439 146.1875 2.3791 147.2023 2.3791 148.2491 2.3791 149.074 2.6963 149.6767 3.3307 150.3746 4.0601 150.7232 5.2021 150.7232 6.7564H153.3402C153.3402 4.5677 152.7534 2.8706 151.5798 1.6654 150.5013 .555 149.0423 0 147.2023 0 145.3944 0 143.9354 .5868 142.825 1.7606 142.0639 2.5852 141.5483 3.8143 141.2787 5.4479 141.0092 7.0815 140.8742 9.4209 140.8742 12.4659 140.8742 15.5744 141.0092 17.9376 141.2787 19.5554 141.5483 21.1731 142.0639 22.3943 142.825 23.2189 143.9036 24.3927 145.3467 24.9795 147.155 24.9795 148.9629 24.9795 150.406 24.3927 151.4846 23.2189 152.246 22.3625 152.7613 21.1096 153.0309 19.4601 153.3005 17.8106 153.4354 15.3524 153.4354 12.0852ZM150.7708 14.2265C150.7391 18.1913 150.3269 20.6181 149.5338 21.5062 148.9311 22.2358 148.1383 22.6003 147.155 22.6003 146.1399 22.6003 145.3309 22.2358 144.7282 21.5062 143.9671 20.6498 143.5706 18.2231 143.5388 14.2265ZM176.2381 22.2199H171.4326V.3807H168.7683V22.2199H164.0103V24.5988H176.2381ZM199.1837 19.3652C199.4374 17.7792 199.5644 15.4794 199.5644 12.4659 199.5644 9.4527 199.4374 7.1529 199.1837 5.567 198.93 3.981 198.4541 2.7598 197.7565 1.9032 196.7097 .6344 195.2189 0 193.284 0 191.3491 0 189.858 .6344 188.8115 1.9032 188.1136 2.7598 187.6377 3.981 187.384 5.567 187.1303 7.1529 187.0033 9.4527 187.0033 12.4659 187.0033 15.4794 187.1303 17.7792 187.384 19.3652 187.6377 20.9511 188.1136 22.1723 188.8115 23.0287 189.858 24.3292 191.3491 24.9795 193.284 24.9795 195.2189 24.9795 196.7097 24.3292 197.7565 23.0287 198.4541 22.1723 198.93 20.9511 199.1837 19.3652ZM196.662 6.3281C196.8208 7.5969 196.8999 9.6429 196.8999 12.4659 196.8999 15.2889 196.8208 17.3429 196.662 18.6276 196.5036 19.9123 196.1705 20.8718 195.6628 21.5062 195.0602 22.2358 194.2673 22.6003 193.284 22.6003 192.2689 22.6003 191.4599 22.2358 190.8573 21.5062 190.3499 20.8718 190.0247 19.9202 189.8819 18.6514 189.7393 17.3826 189.6678 15.3207 189.6678 12.4659 189.6678 9.6111 189.7393 7.5574 189.8819 6.3043 190.0247 5.0513 190.3499 4.1077 190.8573 3.4733 191.4599 2.7439 192.2689 2.3791 193.284 2.3791 194.2673 2.3791 195.0602 2.7439 195.6628 3.4733 196.1705 4.1077 196.5036 5.0593 196.662 6.3281ZM225.0317 .3807H222.3672V22.2199H217.0383V9.754C217.0383 6.2649 216.5227 3.8302 215.4917 2.4506 214.4611 1.0706 212.978 .3807 211.0431 .3807H210.2343V2.7122H210.6626C211.1383 2.7122 211.5587 2.7833 211.9235 2.9262 212.288 3.0691 212.6767 3.3783 213.0891 3.854 213.5015 4.3299 213.8187 5.1228 214.0407 6.2331 214.2626 7.3431 214.3738 8.7389 214.3738 10.4202V24.5988H225.0317ZM250.4511 19.3652C250.7049 17.7792 250.8318 15.4794 250.8318 12.4659 250.8318 9.4527 250.7049 7.1529 250.4511 5.567 250.1974 3.981 249.7215 2.7598 249.0239 1.9032 247.9771 .6344 246.4863 0 244.5514 0 242.6165 0 241.1254 .6344 240.0789 1.9032 239.381 2.7598 238.9051 3.981 238.6514 5.567 238.3977 7.1529 238.2707 9.4527 238.2707 12.4659 238.2707 15.4794 238.3977 17.7792 238.6514 19.3652 238.9051 20.9511 239.381 22.1723 240.0789 23.0287 241.1254 24.3292 242.6165 24.9795 244.5514 24.9795 246.4863 24.9795 247.9771 24.3292 249.0239 23.0287 249.7215 22.1723 250.1974 20.9511 250.4511 19.3652ZM247.9294 6.3281C248.0882 7.5969 248.1673 9.6429 248.1673 12.4659 248.1673 15.2889 248.0882 17.3429 247.9294 18.6276 247.771 19.9123 247.4379 20.8718 246.9302 21.5062 246.3276 22.2358 245.5347 22.6003 244.5514 22.6003 243.5363 22.6003 242.7273 22.2358 242.1247 21.5062 241.6173 20.8718 241.2921 19.9202 241.1493 18.6514 241.0067 17.3826 240.9352 15.3207 240.9352 12.4659 240.9352 9.6111 241.0067 7.5574 241.1493 6.3043 241.2921 5.0513 241.6173 4.1077 242.1247 3.4733 242.7273 2.7439 243.5363 2.3791 244.5514 2.3791 245.5347 2.3791 246.3276 2.7439 246.9302 3.4733 247.4379 4.1077 247.771 5.0593 247.9294 6.3281ZM274.0626 24.5988V22.2199H266.6877V.3807H264.0234V24.5988ZM288.5389 .3807H285.8746V24.5988H288.5389ZM288.9196 30.1657H285.4939V33.5914H288.9196ZM313.34 .3807H310.6757V10.8006H307.4403L303.8717 .3807H301.0646L304.9659 11.2765C302.8408 12.2598 301.7781 14.4009 301.7781 17.6998 301.7781 22.299 303.7606 24.5988 307.7257 24.5988H313.34ZM310.6757 13.1321V22.2673H307.821C306.6154 22.2673 305.7511 21.9027 305.2278 21.1731 304.7043 20.4435 304.4426 19.2858 304.4426 17.6998 304.4426 14.6546 305.5689 13.1321 307.821 13.1321Z" fill="#1a1a18"/>
</g>
</svg>
